<svg width="150" height="150" viewBox="0 0 150 150" fill="none" xmlns="http://www.w3.org/2000/svg">
<path d="M103.125 65.332H46.875C46.2305 65.332 45.7031 65.8594 45.7031 66.5039V125.391C45.7031 126.035 46.2305 126.562 46.875 126.562H103.125C103.77 126.562 104.297 126.035 104.297 125.391V66.5039C104.297 65.8594 103.77 65.332 103.125 65.332ZM55.0781 74.707H94.9219V91.8457H55.0781V74.707ZM94.9219 117.188H55.0781V100.049H94.9219V117.188Z" fill="black"/>
<path d="M62.1094 109.57C62.1094 110.814 62.6032 112.006 63.4823 112.885C64.3614 113.764 65.5537 114.258 66.7969 114.258C68.0401 114.258 69.2324 113.764 70.1114 112.885C70.9905 112.006 71.4844 110.814 71.4844 109.57C71.4844 108.327 70.9905 107.135 70.1114 106.256C69.2324 105.377 68.0401 104.883 66.7969 104.883C65.5537 104.883 64.3614 105.377 63.4823 106.256C62.6032 107.135 62.1094 108.327 62.1094 109.57ZM62.1094 83.4961C62.1094 84.7393 62.6032 85.9316 63.4823 86.8107C64.3614 87.6897 65.5537 88.1836 66.7969 88.1836C68.0401 88.1836 69.2324 87.6897 70.1114 86.8107C70.9905 85.9316 71.4844 84.7393 71.4844 83.4961C71.4844 82.2529 70.9905 81.0606 70.1114 80.1815C69.2324 79.3025 68.0401 78.8086 66.7969 78.8086C65.5537 78.8086 64.3614 79.3025 63.4823 80.1815C62.6032 81.0606 62.1094 82.2529 62.1094 83.4961Z" fill="black"/>
<path d="M118.857 54.0381C112.148 36.3281 95.0536 23.7305 75.0292 23.7305C55.0048 23.7305 37.91 36.3135 31.2011 54.0234C18.5887 57.3486 9.30164 68.8769 9.37488 82.5586C9.46277 97.8516 21.328 110.288 36.2694 111.621C36.9579 111.68 37.5438 111.138 37.5438 110.449V101.602C37.5438 101.016 37.1044 100.518 36.5184 100.444C32.5634 99.9463 28.828 98.2178 25.9569 95.3906C22.4413 91.9482 20.5077 87.3193 20.5077 82.4121C20.5077 78.3105 21.8407 74.4434 24.3456 71.2207C26.7919 68.0859 30.2343 65.8154 34.0282 64.8193L39.58 63.3545L41.6161 57.9785C42.8759 54.6387 44.6337 51.5039 46.8456 48.6768C49.0282 45.8643 51.621 43.4033 54.5214 41.3525C60.5419 37.1191 67.6317 34.8779 75.0292 34.8779C82.4266 34.8779 89.5165 37.1191 95.537 41.3672C98.452 43.418 101.03 45.8789 103.213 48.6914C105.425 51.5186 107.183 54.6533 108.442 57.9932L110.464 63.3545L116.001 64.8193C123.94 66.9287 129.492 74.1504 129.492 82.3975C129.492 87.3193 127.558 91.9336 124.043 95.376C121.186 98.1885 117.466 99.9316 113.511 100.43C112.925 100.503 112.5 101.001 112.5 101.587V110.449C112.5 111.138 113.1 111.68 113.789 111.621C128.686 110.273 140.522 97.8516 140.625 82.5879C140.713 68.9062 131.44 57.3779 118.857 54.0381Z" fill="black"/>
</svg>
