<svg width="150" height="150" viewBox="0 0 150 150" fill="none" xmlns="http://www.w3.org/2000/svg">
<path d="M138.428 60.3516H100.928C100.283 60.3516 99.756 60.8789 99.756 61.5234V68.5547C99.756 69.1992 100.283 69.7266 100.928 69.7266H138.428C139.072 69.7266 139.6 69.1992 139.6 68.5547V61.5234C139.6 60.8789 139.072 60.3516 138.428 60.3516ZM118.799 80.2734H100.928C100.283 80.2734 99.756 80.8008 99.756 81.4453V88.4766C99.756 89.1211 100.283 89.6484 100.928 89.6484H118.799C119.443 89.6484 119.971 89.1211 119.971 88.4766V81.4453C119.971 80.8008 119.443 80.2734 118.799 80.2734ZM69.9171 47.2412H63.5743C62.6661 47.2412 61.9337 47.9736 61.9337 48.8818V85.21C61.9337 85.7373 62.1827 86.2207 62.6075 86.5283L84.4191 102.437C85.1515 102.964 86.1769 102.817 86.7042 102.085L90.4689 96.9434V96.9287C90.9962 96.1963 90.8351 95.1709 90.1027 94.6435L71.5431 81.2256V48.8818C71.5577 47.9736 70.8107 47.2412 69.9171 47.2412Z" fill="black"/>
<path d="M117.891 98.716H109.424C108.604 98.716 107.827 99.1408 107.388 99.8439C105.527 102.788 103.359 105.513 100.869 108.003C96.5772 112.295 91.5821 115.664 86.0304 118.008C80.2735 120.44 74.1651 121.67 67.8663 121.67C61.5528 121.67 55.4444 120.44 49.7022 118.008C44.1505 115.664 39.1554 112.295 34.8634 108.003C30.5714 103.711 27.2022 98.716 24.8585 93.1642C22.4269 87.422 21.1964 81.3136 21.1964 75.0001C21.1964 68.6867 22.4269 62.5929 24.8585 56.8361C27.2022 51.2843 30.5714 46.2892 34.8634 41.9972C39.1554 37.7052 44.1505 34.3361 49.7022 31.9923C55.4444 29.5607 61.5675 28.3302 67.8663 28.3302C74.1798 28.3302 80.2882 29.5607 86.0304 31.9923C91.5821 34.3361 96.5772 37.7052 100.869 41.9972C103.359 44.4874 105.527 47.2121 107.388 50.1564C107.827 50.8595 108.604 51.2843 109.424 51.2843H117.891C118.901 51.2843 119.546 50.2296 119.092 49.3361C109.541 30.3371 90.1759 17.9884 68.5548 17.7394C36.8995 17.3439 10.6056 43.257 10.547 74.883C10.4884 106.568 36.1671 132.276 67.8517 132.276C89.7511 132.276 109.439 119.883 119.092 100.664C119.546 99.7707 118.887 98.716 117.891 98.716Z" fill="black"/>
</svg>
