<svg width="172" height="150" viewBox="0 0 172 150" fill="none" xmlns="http://www.w3.org/2000/svg">
<g clip-path="url(#clip0)">
<path d="M157.771 26.7857C154.094 26.7857 150.946 28.0971 148.328 30.7199C145.709 33.3426 144.4 36.4955 144.4 40.1786C144.4 41.5178 144.679 42.9687 145.236 44.5312L112.646 72.6562C110.083 70.6473 107.297 69.6429 104.289 69.6429C100.724 69.6429 97.6038 70.9263 94.9297 73.4933L69.3589 60.6027C69.136 57.1429 67.7711 54.2132 65.2642 51.8136C62.7573 49.4141 59.7211 48.2143 56.1556 48.2143C53.7044 48.2143 51.4481 48.8002 49.3869 49.9721C47.3256 51.144 45.71 52.7623 44.5401 54.827C43.3702 56.8917 42.7852 59.1518 42.7852 61.6071C42.7852 63.5045 43.2309 65.4018 44.1223 67.2991L18.05 97.2656C16.4901 96.7076 14.9303 96.4286 13.3704 96.4286C9.69353 96.4286 6.54592 97.74 3.92755 100.363C1.30918 102.985 0 106.138 0 109.821C0 113.504 1.30918 116.657 3.92755 119.28C6.54592 121.903 9.69353 123.214 13.3704 123.214C17.0472 123.214 20.1949 121.903 22.8132 119.28C25.4316 116.657 26.7408 113.504 26.7408 109.821C26.7408 108.147 26.4065 106.473 25.738 104.799L52.1445 74.3304C53.593 74.7768 54.93 75 56.1556 75C58.0498 75 59.8325 74.6094 61.5038 73.8281C63.1751 73.0469 64.6792 71.9866 66.0163 70.6473L90.9186 83.2031C90.9186 84.9888 91.2807 86.6908 92.005 88.3092C92.7292 89.9275 93.6763 91.3225 94.8462 92.4944C96.0161 93.6663 97.4367 94.615 99.108 95.3404C100.779 96.0658 102.506 96.4286 104.289 96.4286C105.292 96.4286 106.295 96.317 107.297 96.0938C108.3 95.8705 109.247 95.5357 110.139 95.0893C111.03 94.6429 111.866 94.1127 112.646 93.4989C113.425 92.885 114.122 92.1875 114.735 91.4062C115.347 90.625 115.877 89.7879 116.322 88.8951C116.768 88.0022 117.102 87.0536 117.325 86.0491C117.548 85.0446 117.659 84.0402 117.659 83.0357V82.3661L152.422 52.3995C154.094 53.1808 155.876 53.5714 157.771 53.5714C161.447 53.5714 164.595 52.26 167.213 49.6373C169.832 47.0145 171.141 43.8616 171.141 40.1786C171.141 36.4955 169.832 33.3426 167.213 30.7199C164.595 28.0971 161.447 26.7857 157.771 26.7857Z" fill="black"/>
</g>
<defs>
<clipPath id="clip0">
<rect width="171.141" height="150" fill="white"/>
</clipPath>
</defs>
</svg>
