<svg width="45" height="101" viewBox="0 0 45 101" fill="none" xmlns="http://www.w3.org/2000/svg">
<path d="M43.9584 39.6911C38.6989 16.4985 26.2724 8.89371 24.9371 5.97939C23.4706 3.91248 21.8915 0.00378418 21.8915 0.00378418C21.8759 0.085085 21.8759 0.135116 21.8602 0.216417V0.266448C21.8602 0.332114 21.8446 0.363384 21.8446 0.42905V0.494716H21.829V0.704222H21.8133C21.8133 0.735491 21.8133 0.785523 21.7977 0.801158V0.898093C21.7977 0.929363 21.7977 0.963759 21.782 0.979394V1.06069C21.782 1.11073 21.782 1.15763 21.7664 1.19203V1.20766C21.7637 1.27946 21.7532 1.35075 21.7351 1.42029V1.45156C21.7195 1.4672 21.7195 1.48283 21.7195 1.5016V1.56726H21.7039V1.6642H21.6882V1.72986H21.657V1.8268H21.6413V1.9081H21.6257V1.97377H21.6101V2.03943H21.5944V2.1051H21.5788V2.17076H21.5632V2.22079H21.5475V2.28646H21.5319V2.35213H21.5163C21.5006 2.35213 21.5006 2.36776 21.5006 2.36776V2.39903L21.485 2.4303C21.485 2.46157 21.4693 2.49597 21.4537 2.52724C21.4381 2.54287 21.4381 2.54287 21.4381 2.55851V2.58978H21.4224V2.62104H21.3912V2.70235H21.3599V2.75238H21.3443V2.76801H21.3286V2.79928H21.313V2.84931H21.2974V2.88058H21.2661V2.93061H21.2505V2.96188H21.2348V2.99315H21.2192V3.04318H21.2036V3.07445H21.1879V3.09009H21.1723V3.12136H21.141V3.17139H21.1254V3.18702H21.1098V3.21829H21.0941V3.26832H21.0785V3.28396H21.0628V3.31523H21.0472V3.33086H21.0316V3.38089H21.0003V3.39653H20.9847V3.4278H20.969V3.44343H20.9534V3.4747H20.9378V3.50597C20.9221 3.50597 20.9221 3.52161 20.9221 3.52161V3.53724H20.9065L20.8565 3.61854C20.8565 3.61854 20.8252 3.64981 20.8252 3.66857C20.8096 3.66857 20.8096 3.68421 20.8096 3.68421V3.69984H20.7939V3.71548H20.7783V3.74675H20.747V3.76238H20.7314V3.77802H20.7158V3.82492H20.7001V3.84056H20.6845V3.85619H20.6688V3.88746H20.6532V3.85619H20.6219V3.87183H20.6063V3.9031H20.5907V3.93437H20.575V3.95H20.5594V3.96564H20.5438V3.98127H20.5281V4.01254H20.4969V4.02817H20.4812V4.05944H20.4656V4.07508H20.45V4.09071H20.4343V4.14074H20.4187V4.15638H20.4031V4.17201H20.3874V4.18765H20.3718V4.20328H20.3405V4.23455H20.3249V4.25019H20.3093V4.26582H20.2936V4.29709H20.278V4.31273H20.2467V4.32836H20.2311V4.344H20.2154V4.37527H20.1998V4.40654H20.1842V4.42217H20.1685V4.43781H20.1373V4.45344H20.1216V4.46907H20.106V4.50034H20.0904V4.51598H20.0747V4.54725H20.0591V4.56288H20.0435V4.57852H20.0278V4.59415H20.0122V4.60979H19.9809V4.62542C19.9653 4.62542 19.9653 4.64106 19.9653 4.64106L19.9496 4.65669L19.934 4.67233V4.7036H19.9184V4.71923H19.9027V4.73487H19.8871V4.7505H19.8715L19.8402 4.78177V4.79741C19.8089 4.81304 19.8089 4.82867 19.7745 4.86307C19.7745 4.86307 19.7433 4.89434 19.7245 4.89434C19.6745 4.92561 19.6119 4.99128 19.5619 5.04131C19.5306 5.05694 19.4962 5.09134 19.465 5.10697C19.3993 5.17264 19.3336 5.21954 19.268 5.26958C19.171 5.36651 19.071 5.43218 18.9584 5.52911H18.9428L18.1767 6.19828H18.161C17.4606 6.81742 16.6288 7.61479 15.6845 8.55913L15.6032 8.64043C9.93402 14.5035 0.994061 26.733 0.0653562 46.4891C-0.0315793 48.1182 -0.0159472 49.713 0.0809884 51.2608V51.2921C0.537524 59.0782 2.97967 65.723 6.04096 71.1295C7.24484 73.2808 8.56441 75.2352 9.89962 76.9925C14.4931 83.0526 19.1835 86.6517 20.3718 87.5304C22.2136 91.7799 22.0478 99.1095 22.0478 99.1095L24.7339 100.004C24.7339 100.004 24.1804 92.9181 24.9465 89.4816C25.1904 88.4215 25.7439 87.5116 26.3974 86.7299C26.854 86.4203 28.1579 85.476 29.7214 84.0438C29.8027 83.9625 29.8527 83.8968 29.9184 83.8155C36.2536 77.9025 48.0954 63.3434 44.0397 39.6317L43.9584 39.6911Z" fill="white"/>
</svg>
