<svg width="89" height="100" viewBox="0 0 89 100" fill="none" xmlns="http://www.w3.org/2000/svg">
<path d="M44.31 100C42.9805 100 41.6311 99.6428 40.4604 98.9682L28.2171 91.7254C26.3915 90.6935 27.2845 90.3363 27.8798 90.1379C30.3205 89.2847 30.8166 89.1061 33.416 87.6178C33.6938 87.4591 34.051 87.5186 34.3288 87.6972L43.7345 93.2731C44.0718 93.4716 44.5481 93.4716 44.8656 93.2731L81.5161 72.1203C81.8534 71.9218 82.0717 71.525 82.0717 71.1281V28.8223C82.0717 28.4056 81.8534 28.0286 81.4962 27.8103L44.8656 6.67725C44.5282 6.47882 44.0718 6.47882 43.7345 6.67725L7.12372 27.8301C6.76655 28.0286 6.54827 28.4254 6.54827 28.8421V71.1281C6.54827 71.525 6.76655 71.9218 7.12372 72.1004L17.1644 77.8946C22.6213 80.6132 25.955 77.4184 25.955 74.184V32.4338C25.955 31.8385 26.4312 31.3821 27.0265 31.3821H31.6698C32.2453 31.3821 32.7414 31.8385 32.7414 32.4338V74.2038C32.7414 81.4664 28.7727 85.6335 21.8871 85.6335C19.7639 85.6335 18.097 85.6335 13.4537 83.3317L3.84959 77.7954C1.4684 76.4262 0 73.8665 0 71.1082V28.8223C0 26.0839 1.4684 23.5043 3.84959 22.1351L40.4604 0.98224C42.782 -0.327413 45.8577 -0.327413 48.1596 0.98224L84.81 22.155C87.1912 23.5242 88.6596 26.0839 88.6596 28.8421V71.1281C88.6596 73.8665 87.1912 76.4262 84.81 77.8153L48.1596 98.9682C46.9888 99.6428 45.6593 100 44.31 100ZM73.8962 58.3094C73.8962 50.3919 68.5386 48.2885 57.2874 46.8003C45.8974 45.2922 44.7465 44.5183 44.7465 41.8593C44.7465 39.6567 45.7188 36.7199 54.1522 36.7199C61.6728 36.7199 64.4509 38.3471 65.6018 43.4269C65.701 43.9032 66.1375 44.2603 66.6336 44.2603H71.396C71.6936 44.2603 71.9715 44.1413 72.1699 43.923C72.3683 43.7047 72.4675 43.4071 72.4477 43.1094C71.7135 34.3586 65.8994 30.2907 54.1522 30.2907C43.6948 30.2907 37.4641 34.6959 37.4641 42.0974C37.4641 50.1141 43.675 52.3365 53.6958 53.3287C65.701 54.4995 66.6336 56.2655 66.6336 58.6269C66.6336 62.7146 63.3396 64.4608 55.6206 64.4608C45.9173 64.4608 43.794 62.02 43.0797 57.1981C43.0003 56.6822 42.5638 56.3052 42.028 56.3052H37.2855C36.6902 56.3052 36.2338 56.7814 36.2338 57.3569C36.2338 63.5281 39.5873 70.89 55.6405 70.89C67.2289 70.8701 73.8962 66.2863 73.8962 58.3094Z" fill="black"/>
</svg>
