<svg width="113" height="101" viewBox="0 0 113 101" fill="none" xmlns="http://www.w3.org/2000/svg">
<path d="M56.1968 40.2455C50.672 40.2455 46.1727 44.7448 46.1727 50.2696C46.1727 55.7945 50.672 60.2937 56.1968 60.2937C61.7217 60.2937 66.2209 55.7945 66.2209 50.2696C66.2209 44.7448 61.7217 40.2455 56.1968 40.2455ZM28.1335 70.1914L25.9208 69.6435C9.45511 65.4708 0 58.4111 0 50.252C0 42.093 9.45863 35.0332 25.9208 30.8606L28.1335 30.3127L28.7552 32.5079C30.4256 38.2576 32.5611 43.8618 35.1406 49.2651L35.6147 50.252L35.1406 51.2566C32.5557 56.6575 30.42 62.2622 28.7552 68.0137L28.1335 70.1914ZM24.8987 35.9816C12.3844 39.4939 4.70297 44.8888 4.70297 50.252C4.70297 55.6153 12.3879 60.9892 24.8987 64.5225C26.4324 59.6497 28.2838 54.8826 30.4411 50.252C28.2808 45.6227 26.4293 40.8555 24.8987 35.9816ZM84.2601 70.1914L83.6384 67.9962C81.971 62.2512 79.8354 56.6526 77.2531 51.2566L76.7789 50.252L77.2531 49.2475C79.838 43.8466 81.9736 38.2419 83.6384 32.4903L84.2601 30.3127L86.4729 30.8606C102.939 35.0332 112.394 42.093 112.394 50.252C112.394 58.4111 102.935 65.4708 86.4729 69.6435L84.2601 70.1914ZM81.9525 50.252C84.117 54.8796 85.9686 59.6471 87.4949 64.5225C100.027 60.9927 107.691 55.6153 107.691 50.252C107.691 44.8888 100.006 39.5149 87.4949 35.9816C85.9577 40.8531 84.1063 45.6199 81.9525 50.252ZM24.8601 35.964L24.2384 33.7688C19.6092 17.4507 21.0176 5.74416 28.0984 1.66287C35.0493 -2.34467 46.1903 2.39343 57.8792 14.395L59.4703 16.0247L57.8792 17.6544C53.7282 21.9732 49.9353 26.6224 46.538 31.5561L45.8988 32.4517L44.7994 32.543C38.8231 33.0147 32.8949 33.9697 27.0728 35.3985L24.8601 35.964ZM33.7497 4.92228C32.4888 4.92228 31.3719 5.17868 30.4376 5.7266C25.7908 8.41702 24.9689 17.7457 28.1687 30.3303C33.1612 29.2135 38.2216 28.425 43.3172 27.97C46.2509 23.7917 49.4588 19.8129 52.9198 16.0598C45.6213 8.94387 38.7056 4.91877 33.7497 4.91877V4.92228ZM78.6615 100.264C78.6439 100.264 78.6439 100.264 78.6615 100.264C71.9846 100.264 63.4041 95.2516 54.5144 86.1056L52.9234 84.4759L54.5144 82.8462C58.6654 78.5274 62.4583 73.8782 65.8556 68.9445L66.4773 68.0489L67.5767 67.94C73.5606 67.4841 79.496 66.529 85.3208 65.0845L87.5336 64.5366L88.1552 66.7318C92.7845 83.0499 91.376 94.7389 84.2952 98.8166C82.5833 99.8006 80.6357 100.3 78.6615 100.26V100.264ZM59.4703 84.4408C66.7688 91.5567 73.6846 95.5818 78.6404 95.5818H78.658C79.9013 95.5818 81.0182 95.3078 81.9525 94.7775C86.5993 92.0871 87.4422 82.7584 84.2215 70.1738C79.2299 71.2918 74.169 72.0744 69.0729 72.5165C66.1394 76.7005 62.9315 80.6852 59.4703 84.4443V84.4408ZM87.5336 35.964L85.3208 35.3985C79.4918 33.9745 73.5581 33.0196 67.5767 32.543L66.4773 32.4517L65.8556 31.5561C62.4583 26.6224 58.6654 21.9732 54.5144 17.6544L52.9234 16.0247L54.5144 14.395C66.2034 2.39343 77.3444 -2.34467 84.2952 1.66287C91.376 5.74065 92.7845 17.4507 88.1552 33.7688L87.5336 35.964ZM69.0764 27.97C74.1722 28.4238 79.2327 29.2123 84.225 30.3303C87.4458 17.7457 86.6028 8.41351 81.956 5.7266C77.3268 3.05725 68.6198 7.1526 59.4738 16.0633C62.9255 19.8245 66.1329 23.8027 69.0764 27.9735V27.97ZM33.7497 100.264C31.7723 100.299 29.8159 99.8071 28.0984 98.8201C21.0176 94.7424 19.6092 83.0499 24.2384 66.7353L24.8601 64.5401L27.0728 65.088C32.4888 66.4613 38.4527 67.4096 44.7994 67.9435L45.8988 68.0524L46.5204 68.948C49.9177 73.8817 53.7107 78.5309 57.8616 82.8497L59.4527 84.4794L57.8616 86.1091C48.9896 95.2552 40.409 100.267 33.7497 100.267V100.264ZM28.1722 70.1738C24.9514 82.7584 25.7943 92.0906 30.4411 94.7775C35.0703 97.4117 43.7598 93.3515 52.9234 84.4408C49.4622 80.6816 46.2542 76.697 43.3207 72.513C38.2244 72.0722 33.1635 71.2896 28.1722 70.1703V70.1738ZM56.1968 73.1171C52.3368 73.1171 48.3855 72.952 44.4166 72.6219L43.3172 72.5306L42.678 71.6174C40.4361 68.3962 38.3304 65.0823 36.3664 61.6846C34.3983 58.2867 32.5738 54.8076 30.8977 51.2566L30.4235 50.252L30.8977 49.2475C34.2556 42.147 38.1958 35.3368 42.678 28.8867L43.3172 27.9735L44.4166 27.8822C52.2562 27.2219 60.1374 27.2219 67.9771 27.8822L69.0764 27.9735L69.7157 28.8867C74.2036 35.3331 78.1441 42.1438 81.4959 49.2475L81.9701 50.252L81.4959 51.2566C78.1509 58.3638 74.21 65.1751 69.7157 71.6174L69.0764 72.5306L67.9771 72.6219C64.0589 72.9498 60.1287 73.115 56.1968 73.1171ZM45.9163 68.0313C52.832 68.5617 59.5616 68.5617 66.4949 68.0313C70.3616 62.3692 73.7981 56.4249 76.7754 50.2485C73.8107 44.062 70.3675 38.1163 66.4773 32.4657C59.6339 31.9354 52.7597 31.9354 45.9163 32.4657C42.0233 38.1146 38.5801 44.0605 35.6182 50.2485C38.5964 56.428 42.039 62.3726 45.9163 68.0313Z" fill="black"/>
</svg>
